<svg width="21" height="19" viewBox="0 0 21 19" fill="none" xmlns="http://www.w3.org/2000/svg">
<path fill-rule="evenodd" clip-rule="evenodd" d="M5.84715 4.46906C5.8483 4.39313 5.8516 4.31069 5.85802 4.22276C5.88922 3.79551 5.99624 3.21006 6.31024 2.61573C6.98402 1.34038 8.40146 0.386536 10.9456 0.386536C13.4898 0.386536 14.9073 1.34038 15.581 2.61573C15.895 3.21006 16.0021 3.79551 16.0333 4.22276C16.0397 4.31069 16.043 4.39313 16.0441 4.46906H20.8779V8.4588C20.8779 10.1157 19.5348 11.4588 17.8779 11.4588H3.86328C2.20643 11.4588 0.863281 10.1157 0.863281 8.4588V4.46906H5.84715ZM14.0435 4.46906C14.0427 4.44494 14.0414 4.41916 14.0394 4.39192C14.0245 4.18742 13.9741 3.93052 13.8431 3.68249C13.6268 3.27314 13.0037 2.54228 10.9456 2.54228C8.88763 2.54228 8.26447 3.27314 8.0482 3.68249C7.91716 3.93052 7.86679 4.18742 7.85186 4.39192C7.84987 4.41916 7.84855 4.44494 7.84774 4.46906H14.0435Z" fill="#666666"/>
<path d="M0.863281 11.4588C0.863281 11.4588 1.47105 12.5009 10.8706 12.5009C20.2702 12.5009 20.8779 11.4588 20.8779 11.4588V15.4485C20.8779 17.1054 19.5348 18.4485 17.8779 18.4485H3.86328C2.20643 18.4485 0.863281 17.1054 0.863281 15.4485V11.4588Z" fill="#666666"/>
</svg>
