<svg width="15" height="15" viewBox="0 0 15 15" fill="none" xmlns="http://www.w3.org/2000/svg">
<path d="M7.5 14.5C3.64024 14.5 0.5 11.3598 0.5 7.5C0.5 3.64024 3.64024 0.5 7.5 0.5C11.3598 0.5 14.5 3.64024 14.5 7.5C14.5 11.3598 11.3598 14.5 7.5 14.5ZM7.5 1.57692C4.23558 1.57692 1.57692 4.23558 1.57692 7.5C1.57692 10.7644 4.23558 13.4231 7.5 13.4231C10.7644 13.4231 13.4231 10.7661 13.4231 7.5C13.4231 4.23389 10.7661 1.57692 7.5 1.57692Z" fill="white"/>
<path d="M9.77732 8.71148C9.19175 8.71148 8.62602 8.45167 8.18415 7.98018C7.74708 7.50611 7.48576 6.89651 7.44376 6.25307C7.39429 5.55643 7.608 4.91533 8.0455 4.44855C8.483 3.98177 9.09449 3.73071 9.77732 3.73071C10.4551 3.73071 11.0686 3.98716 11.5048 4.45292C11.9409 4.91869 12.16 5.5635 12.1105 6.25374C12.0678 6.89679 11.8065 7.50592 11.3702 7.98018C10.9279 8.45167 10.3626 8.71148 9.77732 8.71148ZM4.39775 8.82456C3.39622 8.82456 2.51549 7.89874 2.43473 6.76057C2.39333 6.17768 2.57439 5.63889 2.94525 5.24345C3.31612 4.84802 3.82766 4.63768 4.39742 4.63768C4.96718 4.63768 5.47838 4.85441 5.84689 5.24816C6.2154 5.64191 6.40218 6.18441 6.36011 6.76259C6.278 7.89908 5.39761 8.82456 4.39775 8.82456ZM13.0316 10.8411C12.9781 10.6829 12.8479 10.5143 12.5867 10.3545C11.7972 9.8722 10.826 9.61711 9.77732 9.61711C8.74853 9.61711 7.75035 9.88297 6.96622 10.3659C6.0828 10.9101 5.48915 11.7036 5.24987 12.6604C5.19333 12.8856 5.11088 13.3046 5.19905 13.5391C6.61402 14.0772 8.17291 14.1019 9.60421 13.6089C11.0355 13.1159 12.2485 12.1364 13.032 10.8411H13.0316ZM4.39136 12.3922C4.62929 11.4428 5.13578 10.6513 5.9216 10.0112C5.95875 9.98055 5.987 9.94049 6.0034 9.89521C6.0198 9.84993 6.02376 9.80108 6.01486 9.75375C6.00596 9.70642 5.98452 9.66234 5.95279 9.62612C5.92105 9.58989 5.88018 9.56284 5.83444 9.54778C5.43059 9.41889 4.96953 9.3499 4.39775 9.3499C3.59612 9.3499 2.74501 9.56696 2.10458 9.96139C1.92285 10.0735 1.74449 10.1165 1.60718 10.1549C2.15845 11.3733 3.07266 12.3917 4.22477 13.0707L4.28501 13.066C4.29819 12.8384 4.33381 12.6127 4.39136 12.3922Z" fill="white"/>
</svg>
