<svg preserveAspectRatio="xMidYMid meet" viewBox="134.76073619631902 129.924 755.6226993865031 630.3720000000001" version="1.0" xmlns="http://www.w3.org/2000/svg" style="max-height: 500px" width="755.6226993865031" height="630.3720000000001">

<g stroke="none" fill="#155883" transform="translate(0.000000,802.000000) scale(0.100000,-0.100000)">
<path fill="#155883" d="M2675 6589 c-60 -118 -113 -441 -150 -914 -51 -655 -66 -1139 -73 -2405 l-7 -1075 -105 -18 c-287 -48 -523 -146 -699 -289 -255 -206 -328 -536 -185 -837 27 -59 53 -92 122 -160 97 -96 199 -161 348 -222 203 -83 351 -110 724 -133 523 -33 710 -39 1140 -40 491 -1 538 3 683 64 130 54 228 156 256 266 7 27 17 59 22 72 l9 22 354 0 c288 0 356 -3 365 -14 6 -7 18 -40 27 -72 39 -151 191 -276 390 -319 98 -22 645 -30 999 -16 398 16 912 49 1035 66 330 48 622 189 776 375 50 61 116 190 132 260 56 237 -17 473 -199 646 -137 130 -339 236 -551 289 -100 25 -116 34 -127 69 -5 18 -12 411 -15 956 -9 1644 -30 2214 -107 2920 -33 308 -56 414 -110 523 l-29 57 -98 0 -97 -1 -97 -112 c-131 -150 -154 -183 -388 -542 -312 -479 -531 -787 -588 -825 -27 -19 -54 -24 -175 -33 -176 -14 -1869 -13 -2082 0 -163 11 -204 23 -257 80 -35 37 -244 340 -591 858 -201 299 -303 442 -356 497 l-74 78 -93 0 -94 0 -35 -71z m4967 -96 c20 -45 69 -336 93 -553 27 -246 56 -800 75 -1433 14 -450 29 -2276 19 -2302 -5 -15 -56 -42 -175 -95 -93 -41 -272 -125 -399 -188 -367 -182 -432 -206 -942 -336 -327 -84 -414 -114 -528 -185 -130 -80 -212 -171 -255 -282 -12 -30 -28 -60 -37 -66 -13 -10 -103 -13 -373 -13 -306 0 -359 2 -378 16 -12 8 -22 21 -22 27 0 7 -13 40 -30 75 -69 147 -243 274 -480 350 -52 17 -212 61 -355 97 -386 98 -526 147 -781 273 -121 60 -277 135 -347 167 -75 34 -135 68 -143 80 -11 18 -14 58 -12 193 l3 170 110 -35 c179 -56 313 -76 520 -76 193 -1 303 13 462 59 401 116 772 415 1058 854 287 440 510 973 649 1549 19 79 40 149 46 155 7 7 139 13 408 18 420 7 606 20 660 45 21 10 72 65 141 152 153 192 196 255 496 716 269 413 338 509 423 590 53 51 63 48 94 -22z m-4781 -1 c97 -126 389 -548 627 -907 146 -220 286 -421 310 -447 24 -26 64 -59 87 -73 87 -50 117 -53 780 -65 341 -7 623 -14 628 -17 8 -5 8 -5 -43 -213 -190 -765 -583 -1504 -1008 -1892 -192 -175 -485 -323 -762 -383 -102 -22 -355 -31 -461 -16 -189 27 -397 94 -425 136 -13 20 -14 125 -4 906 20 1701 65 2472 171 2894 20 77 42 125 57 125 4 -1 23 -22 43 -48z m5094 -4466 c341 -83 589 -235 697 -426 90 -158 83 -364 -18 -516 -117 -177 -385 -322 -689 -374 -109 -19 -321 -36 -798 -65 -336 -20 -1094 -21 -1189 0 -154 32 -276 120 -317 228 -11 32 -21 73 -21 91 0 94 72 217 171 293 114 87 223 127 604 222 400 100 542 149 780 268 273 137 636 302 665 303 8 0 60 -11 115 -24z m-5075 -193 c245 -117 472 -218 535 -239 61 -19 245 -69 410 -109 165 -41 333 -85 372 -99 179 -61 325 -172 385 -293 78 -158 13 -314 -166 -399 -134 -64 -171 -68 -651 -68 -301 -1 -510 4 -695 16 -675 44 -717 48 -865 83 -480 113 -755 421 -670 750 59 225 265 397 610 510 171 56 160 54 240 52 69 -2 78 -6 495 -204z"/>
<path fill="#155883" d="M7467 6075 c-22 -22 -128 -214 -201 -365 -84 -173 -116 -292 -116 -434 0 -155 35 -249 127 -338 103 -99 154 -40 203 237 54 300 91 579 97 721 l6 150 -28 22 c-32 25 -67 28 -88 7z"/>
<path fill="#155883" d="M6505 3423 c-68 -25 -109 -55 -146 -110 -82 -119 -93 -333 -19 -370 18 -9 91 -13 262 -13 236 0 237 0 265 24 27 24 28 27 28 128 0 125 -19 187 -77 253 -80 90 -206 126 -313 88z"/>
<path fill="#155883" d="M5167 2949 c-10 -6 -48 -56 -84 -112 -89 -135 -215 -290 -248 -305 -14 -7 -37 -12 -50 -12 -30 0 -77 -18 -87 -33 -4 -7 -8 -31 -8 -54 0 -58 32 -83 109 -83 97 0 161 54 315 263 48 64 89 117 91 117 2 0 14 -17 26 -37 57 -92 245 -305 291 -329 32 -17 117 -18 152 -3 30 14 48 59 39 99 -8 41 -27 54 -84 55 -71 2 -104 34 -246 236 -149 212 -165 227 -216 198z"/>
<path fill="#155883" d="M2843 6095 c-26 -18 -43 -72 -43 -135 0 -109 87 -719 126 -885 45 -189 57 -206 140 -190 81 15 181 156 206 293 22 121 -22 341 -107 527 -54 118 -206 385 -225 395 -27 15 -73 12 -97 -5z"/>
<path fill="#155883" d="M3730 3449 c-89 -17 -181 -104 -222 -211 -31 -78 -32 -235 -2 -275 38 -50 51 -53 299 -52 127 1 241 4 254 8 47 13 66 54 69 151 5 106 -18 187 -74 263 -74 101 -189 142 -324 116z"/>
</g>
</svg>